<svg width="15" height="14" viewBox="0 0 15 14" fill="none" xmlns="http://www.w3.org/2000/svg">
<path d="M14.0625 5.62617H2.94375L6.34688 1.53867C6.50601 1.34722 6.58256 1.1004 6.55971 0.852495C6.53685 0.604596 6.41645 0.375929 6.225 0.216799C6.03355 0.0576691 5.78672 -0.018889 5.53882 0.00396703C5.29092 0.026823 5.06225 0.147221 4.90312 0.338674L0.215625 5.96367C0.184088 6.00842 0.155887 6.05542 0.13125 6.1043C0.13125 6.15117 0.13125 6.1793 0.0656252 6.22617C0.0231316 6.33367 0.000882301 6.44809 0 6.56367C0.000882301 6.67926 0.0231316 6.79368 0.0656252 6.90117C0.0656252 6.94805 0.0656249 6.97617 0.13125 7.02305C0.155887 7.07193 0.184088 7.11893 0.215625 7.16367L4.90312 12.7887C4.99127 12.8945 5.10165 12.9796 5.22642 13.0379C5.35118 13.0963 5.48727 13.1264 5.625 13.1262C5.84405 13.1266 6.05633 13.0503 6.225 12.9105C6.31993 12.8318 6.3984 12.7352 6.45592 12.6261C6.51344 12.517 6.54887 12.3977 6.56019 12.2749C6.57151 12.1521 6.5585 12.0283 6.52189 11.9105C6.48529 11.7928 6.42581 11.6834 6.34688 11.5887L2.94375 7.50117H14.0625C14.3111 7.50117 14.5496 7.4024 14.7254 7.22659C14.9012 7.05077 15 6.81231 15 6.56367C15 6.31503 14.9012 6.07658 14.7254 5.90076C14.5496 5.72495 14.3111 5.62617 14.0625 5.62617Z" fill="#57007B"/>
</svg>
